{"title":"Predators[2010]R5.LiNE{V2}-LW","uid":5850319,"size":798775713,"categoryP":"video","categoryS":"movies","magnet":"?xt=urn:btih:cae13fee3811afccb6a85b4ddd66570099155549&amp;dn=Predators%5B2010%5DR5.LiNE%7BV2%7D-LW&amp;tr=udp%3A%2F%2Ftracker.openbittorrent.com%3A80&amp;tr=udp%3A%2F%2Fopen.demonii.com%3A1337&amp;tr=udp%3A%2F%2Ftracker.coppersurfer.tk%3A6969&amp;tr=udp%3A%2F%2Fexodus.desync.com%3A6969","seeders":0,"leechers":0,"uploader":"XoLWoX","files":-1,"time":1285360191,"description":"-------------------------------------------------\nFile Name    : Predators[2010]R5.LiNE{V2}-LW\nType         : Movie\nFormat       : AVI\nFile Size    : 761 MB\nDuration     : 01:37:31\nLanguage     : English\nSource       : R5.LiNE{v2}\nSubtitles    : None\nGenre        : Action | Adventure | Sci-Fi | Thriller\nIMDB Link    : http://www.imdb.com/title/tt1424381/\nDownloaded   : http://2reply.in\n-------------------------------------------------\n\nFormat                           : MPEG-4 Visual\nFormat profile                   : Advanced Simple@L5\nFormat settings, BVOP            : Yes\nFormat settings, QPel            : No\nFormat settings, GMC             : No warppoints\nFormat settings, Matrix          : Default (H.263)\nMuxing mode                      : Packed bitstream\nCodec ID                         : XVID\nCodec ID/Hint                    : XviD\nDuration                         : 1h 37mn\nBit rate                         : 954 Kbps\nWidth                            : 680 pixels\nHeight                           : 272 pixels\nDisplay aspect ratio             : 2.500\nFrame rate                       : 25.000 fps\nResolution                       : 8 bits\nColorimetry                      : 4:2:0\nScan type                        : Progressive\nBits/(Pixel*Frame)               : 0.206\nStream size                      : 665 MiB (87%)\nWriting library                  : XviD 1.2.1\n-------------------------------------------------\n\nFormat                           : MPEG Audio\nFormat version                   : Version 1\nFormat profile                   : Layer 3\nCodec ID                         : 55\nCodec ID/Hint                    : MP3\nDuration                         : 1h 37mn\nBit rate mode                    : Constant\nBit rate                         : 128 Kbps\nChannel(s)                       : 2 channels\nSampling rate                    : 44.1 KHz\nStream size                      : 89.3 MiB (12%)\nAlignment                        : Split accross interleaves\nInterleave, duration             : 40 ms (1.00 video frame)\nInterleave, preload duration     : 500 ms\n-------------------------------------------------\n\nRugged mercenary Royce (Adrien Brody) inherits\ncommand of an elite team of human fighters --\nincluding dorky-but-dangerous Edwin (Topher Grace)\nand tough-but-beautiful Isabelle (Alice Braga) --\nas they are hunted by a race of ruthless alien\ntrackers known as Predators. Director NimrÃƒÂ³d Antal's\nsci-fi action explosion, which also stars Laurence\nFishburne and an uzi-toting Danny Trejo, is a direct\nsequel to the 1987 blockbuster Predator.\n\nCast: Adrien Brody, Topher Grace\n\nDirector: NimrÃƒÂ³d Antal\n-------------------------------------------------","torrent":{"xt":"urn:btih:cae13fee3811afccb6a85b4ddd66570099155549","amp;dn":"Predators%5B2010%5DR5.LiNE%7BV2%7D-LW","amp;tr":["udp%3A%2F%2Ftracker.openbittorrent.com%3A80","udp%3A%2F%2Fopen.demonii.com%3A1337","udp%3A%2F%2Ftracker.coppersurfer.tk%3A6969","udp%3A%2F%2Fexodus.desync.com%3A6969"],"infoHash":"cae13fee3811afccb6a85b4ddd66570099155549","infoHashBuffer":{"type":"Buffer","data":[202,225,63,238,56,17,175,204,182,168,91,77,221,102,87,0,153,21,85,73]},"announce":[],"urlList":[]}}